<?xml version="1.0" encoding="UTF-8" standalone="no"?>
<!-- Generator: Adobe Illustrator 16.0.0, SVG Export Plug-In . SVG Version: 6.00 Build 0)  -->

<svg
   xmlns:dc="http://purl.org/dc/elements/1.1/"
   xmlns:cc="http://creativecommons.org/ns#"
   xmlns:rdf="http://www.w3.org/1999/02/22-rdf-syntax-ns#"
   xmlns:svg="http://www.w3.org/2000/svg"
   xmlns="http://www.w3.org/2000/svg"
   xmlns:sodipodi="http://sodipodi.sourceforge.net/DTD/sodipodi-0.dtd"
   xmlns:inkscape="http://www.inkscape.org/namespaces/inkscape"
   version="1.1"
   id="Capa_1"
   x="0px"
   y="0px"
   width="23.48px"
   height="31.693px"
   viewBox="0 0 23.48 31.693"
   style="enable-background:new 0 0 23.48 31.693;"
   xml:space="preserve"
   inkscape:version="0.48.4 r9939"
   sodipodi:docname="verified.svg"><metadata
   id="metadata41"><rdf:RDF><cc:Work
       rdf:about=""><dc:format>image/svg+xml</dc:format><dc:type
         rdf:resource="http://purl.org/dc/dcmitype/StillImage" /><dc:title></dc:title></cc:Work></rdf:RDF></metadata><defs
   id="defs39" /><sodipodi:namedview
   pagecolor="#ffffff"
   bordercolor="#666666"
   borderopacity="1"
   objecttolerance="10"
   gridtolerance="10"
   guidetolerance="10"
   inkscape:pageopacity="0"
   inkscape:pageshadow="2"
   inkscape:window-width="1600"
   inkscape:window-height="853"
   id="namedview37"
   showgrid="false"
   inkscape:zoom="7.4464391"
   inkscape:cx="-4.4422316"
   inkscape:cy="15.8465"
   inkscape:window-x="-4"
   inkscape:window-y="-4"
   inkscape:window-maximized="1"
   inkscape:current-layer="Capa_1" />


<g
   id="g7">
</g>
<g
   id="g9">
</g>
<g
   id="g11">
</g>
<g
   id="g13">
</g>
<g
   id="g15">
</g>
<g
   id="g17">
</g>
<g
   id="g19">
</g>
<g
   id="g21">
</g>
<g
   id="g23">
</g>
<g
   id="g25">
</g>
<g
   id="g27">
</g>
<g
   id="g29">
</g>
<g
   id="g31">
</g>
<g
   id="g33">
</g>
<g
   id="g35">
</g>
<g
   id="g3792"
   inkscape:export-filename="F:\xampp\htdocs\password-generator\img\logo128.png"
   inkscape:export-xdpi="90"
   inkscape:export-ydpi="90"
   transform="translate(7.4184255e-7,5.3507511e-6)"><rect
     y="7.8464999"
     x="3.74"
     height="16"
     width="16"
     id="rect3022"
     style="opacity:0.9;fill:#000000;fill-opacity:0;fill-rule:nonzero;stroke:none" /><g
     transform="matrix(0.50482742,0,0,0.50482742,5.8128213,7.8464999)"
     id="g3018"><path
       inkscape:connector-curvature="0"
       style="fill:#000000"
       d="M 19.006,9.35 C 14.533,12.092 11.309,15.555 10,17.094 L 6.639,14.461 C 6.55,14.397 4.705,16.035 4.754,16.086 l 6.121,6.223 c 0.045,0.051 0.107,0.074 0.174,0.074 0.012,0 0.031,0 0.047,-0.004 0.08,-0.018 0.148,-0.072 0.178,-0.152 0.986,-2.521 4.242,-7.799 8.4,-11.627 0.074,-0.07 0.1,-0.18 0.059,-0.275 C 19.732,10.324 19.068,9.312 19.006,9.35 z"
       id="path3" /><path
       inkscape:connector-curvature="0"
       style="fill:#000000"
       d="M 23.02,3.842 C 13.752,3.842 12.184,0.324 12.17,0.291 12.102,0.119 11.934,0.004 11.744,0 11.744,0 11.74,0 11.736,0 11.552,0 11.382,0.115 11.308,0.283 11.297,0.32 9.695,3.842 0.462,3.842 0.204,3.842 0,4.051 0,4.303 v 15.764 c 0,6.453 11.084,11.383 11.553,11.59 0.062,0.027 0.121,0.037 0.188,0.037 0.061,0 0.127,-0.01 0.186,-0.037 C 12.4,31.45 23.482,26.52 23.482,20.067 V 4.303 C 23.48,4.051 23.275,3.842 23.02,3.842 z M 20.932,19.15 c 0,5.049 -8.678,8.912 -9.047,9.072 -0.045,0.023 -0.098,0.031 -0.145,0.031 -0.051,0 -0.098,-0.008 -0.146,-0.031 C 11.229,28.062 2.548,24.199 2.548,19.15 V 6.811 c 0,-0.199 0.161,-0.363 0.362,-0.363 7.229,0 8.482,-2.756 8.494,-2.783 0.057,-0.133 0.189,-0.223 0.334,-0.223 0.002,0 0.006,0 0.006,0 0.148,0.002 0.279,0.092 0.332,0.229 0.012,0.025 1.24,2.777 8.494,2.777 0.201,0 0.361,0.164 0.361,0.363 V 19.15 z"
       id="path5" /></g></g></svg>